Coordinates
version=1
nRows=10
nColumns=40
inDegrees=yes

Units are S.I. units (second, meters, Newtons, ...)
If the header above contains a line with 'inDegrees', this indicates whether rotational values are in degrees (yes) or radians (no).

endheader
time	pelvis_tilt	pelvis_list	pelvis_rotation	pelvis_tx	pelvis_ty	pelvis_tz	hip_flexion_r	hip_adduction_r	hip_rotation_r	knee_angle_r	knee_angle_r_beta	ankle_angle_r	subtalar_angle_r	mtp_angle_r	hip_flexion_l	hip_adduction_l	hip_rotation_l	knee_angle_l	knee_angle_l_beta	ankle_angle_l	subtalar_angle_l	mtp_angle_l	lumbar_extension	lumbar_bending	lumbar_rotation	arm_flex_r	arm_add_r	arm_rot_r	elbow_flex_r	pro_sup_r	wrist_flex_r	wrist_dev_r	arm_flex_l	arm_add_l	arm_rot_l	elbow_flex_l	pro_sup_l	wrist_flex_l	wrist_dev_l
      5.33500000	    -46.64376263	     -4.80443592	     12.74552095	      0.07022791	      0.65766073	     -1.20405454	     97.23870630	    -47.68636698	     -7.15755034	     65.92110644	      1.15054035	      1.23603950	    -11.13681985	      0.00000000	    103.28093492	    -19.07361220	     -6.96428976	     61.53867882	      1.07405256	     -4.02804751	      2.21563226	      0.00000000	      0.00000000	      0.00000000	      0.00000000	     44.99991502	    -15.00000001	     44.99991502	     75.00017585	     45.00000026	      0.00000000	      0.00000000	     44.99991502	    -15.00000001	     44.99991502	     75.00017585	     45.00000026	      0.00000000	      0.00000000
      5.34000000	    -46.38680918	     -5.02001200	     12.75342658	      0.07108033	      0.65900252	     -1.20445426	     96.37043083	    -47.74137881	     -7.88101397	     65.69672210	      1.14662411	      1.28610274	    -10.99711840	      0.00000000	    103.04944564	    -19.05293999	     -6.74820762	     61.45519386	      1.07259548	     -4.02450559	      2.29480465	      0.00000000	      0.00000000	      0.00000000	      0.00000000	     44.99991537	    -15.00000001	     44.99991537	     75.00017585	     45.00000026	      0.00000000	      0.00000000	     44.99991537	    -15.00000001	     44.99991537	     75.00017585	     45.00000026	      0.00000000	      0.00000000
      5.34500000	    -46.12476820	     -5.07461264	     12.71048566	      0.07190318	      0.66037926	     -1.20458747	     95.68613055	    -47.70379834	     -8.33084521	     65.48162637	      1.14286998	      1.24046886	    -10.97478072	      0.00000000	    102.69114568	    -19.12622231	     -6.70444106	     61.35101666	      1.07077724	     -3.92543709	      2.43754082	      0.00000000	      0.00000000	      0.00000000	      0.00000000	     44.99991570	    -15.00000000	     44.99991570	     75.00017585	     45.00000026	      0.00000000	      0.00000000	     44.99991570	    -15.00000000	     44.99991570	     75.00017585	     45.00000026	      0.00000000	      0.00000000
      5.35000000	    -46.16904973	     -4.96513412	     12.71670855	      0.07229667	      0.66088826	     -1.20475167	     95.70487992	    -47.71774546	     -8.22875614	     65.36136732	      1.14077106	      1.27105397	    -10.80549345	      0.00000000	    102.57174409	    -19.12066496	     -6.86198978	     61.29408346	      1.06978357	     -3.96549728	      2.40160212	      0.00000000	      0.00000000	      0.00000000	      0.00000000	     44.99991602	    -15.00000000	     44.99991602	     75.00017585	     45.00000026	      0.00000000	      0.00000000	     44.99991602	    -15.00000000	     44.99991602	     75.00017585	     45.00000026	      0.00000000	      0.00000000
      5.35500000	    -46.02758144	     -4.93439703	     12.71578169	      0.07294655	      0.66188991	     -1.20492058	     95.32835252	    -47.71959390	     -8.41137827	     65.19331822	      1.13783805	      1.23679182	    -10.75615602	      0.00000000	    102.29981615	    -19.13970407	     -6.91929921	     61.21164952	      1.06834482	     -3.95520465	      2.45967442	      0.00000000	      0.00000000	      0.00000000	      0.00000000	     44.99991632	    -15.00000000	     44.99991632	     75.00017585	     45.00000026	      0.00000000	      0.00000000	     44.99991632	    -15.00000000	     44.99991632	     75.00017585	     45.00000026	      0.00000000	      0.00000000
      5.36000000	    -45.96103860	     -4.87503514	     12.67534516	      0.07350606	      0.66267312	     -1.20494013	     95.12255754	    -47.68793287	     -8.50407892	     65.06462452	      1.13559192	      1.17954468	    -10.65727077	      0.00000000	    102.08851029	    -19.20193133	     -6.99659387	     61.13284313	      1.06696939	     -3.88818038	      2.54735380	      0.00000000	      0.00000000	      0.00000000	      0.00000000	     44.99991662	    -15.00000000	     44.99991662	     75.00017585	     45.00000026	      0.00000000	      0.00000000	     44.99991662	    -15.00000000	     44.99991662	     75.00017585	     45.00000026	      0.00000000	      0.00000000
      5.36500000	    -46.05873341	     -4.45471300	     12.58520854	      0.07375353	      0.66301571	     -1.20453820	     95.60508589	    -47.53481909	     -7.81073453	     64.99507093	      1.13437799	      1.09345512	    -10.68606815	      0.00000000	    101.81864483	    -19.36644137	     -7.49119076	     61.05846288	      1.06567121	     -3.84975815	      2.60050771	      0.00000000	      0.00000000	      0.00000000	      0.00000000	     44.99991695	    -15.00000000	     44.99991695	     75.00017585	     45.00000026	      0.00000000	      0.00000000	     44.99991695	    -15.00000000	     44.99991695	     75.00017585	     45.00000026	      0.00000000	      0.00000000
      5.37000000	    -45.81186176	     -4.60974678	     12.60932028	      0.07458008	      0.66419623	     -1.20489647	     94.86073870	    -47.59119649	     -8.37740380	     64.81358889	      1.13121053	      1.14270804	    -10.58291346	      0.00000000	    101.56996575	    -19.34062013	     -7.34008686	     60.99494074	      1.06456254	     -3.83505661	      2.64795707	      0.00000000	      0.00000000	      0.00000000	      0.00000000	     44.99991721	    -15.00000000	     44.99991721	     75.00017585	     45.00000026	      0.00000000	      0.00000000	     44.99991721	    -15.00000000	     44.99991721	     75.00017585	     45.00000026	      0.00000000	      0.00000000
      5.37500000	    -45.67356853	     -4.64432158	     12.61149480	      0.07523532	      0.66508717	     -1.20507109	     94.43618090	    -47.60120561	     -8.64751115	     64.66498145	      1.12861684	      1.16514441	    -10.49410756	      0.00000000	    101.35691362	    -19.35017807	     -7.32134468	     60.92698150	      1.06337643	     -3.82951182	      2.69494549	      0.00000000	      0.00000000	      0.00000000	      0.00000000	     44.99991746	    -15.00000000	     44.99991746	     75.00017585	     45.00000026	      0.00000000	      0.00000000	     44.99991746	    -15.00000000	     44.99991746	     75.00017585	     45.00000026	      0.00000000	      0.00000000
      5.38000000	    -45.74393227	     -4.30443137	     12.53247229	      0.07555703	      0.66544280	     -1.20473586	     94.80412281	    -47.48575164	     -8.11728249	     64.62049780	      1.12784045	      1.07859867	    -10.51513108	      0.00000000	    101.11372191	    -19.48621328	     -7.71609843	     60.86030321	      1.06221267	     -3.76096681	      2.75602937	      0.00000000	      0.00000000	      0.00000000	      0.00000000	     44.99991774	    -15.00000000	     44.99991774	     75.00017585	     45.00000026	      0.00000000	      0.00000000	     44.99991774	    -15.00000000	     44.99991774	     75.00017585	     45.00000026	      0.00000000	      0.00000000
